Coordinates
nRows=7
nColumns=38

# SIMM Motion File Header:
name Coordinates
datacolumns 38
datarows 7
otherdata 1
range 1.97150000000000000000 1.97750000000000000000

Units are S.I. units (second, meters, Newtons, ...)
Angles are in degrees.

endheader
time	pelvis_tilt	pelvis_list	pelvis_rotation	pelvis_tx	pelvis_ty	pelvis_tz	hip_flexion_r	hip_adduction_r	hip_rotation_r	knee_angle_r	ankle_angle_r	subtalar_angle_r	mtp_angle_r	hip_flexion_l	hip_adduction_l	hip_rotation_l	knee_angle_l	ankle_angle_l	subtalar_angle_l	mtp_angle_l	lumbar_extension	lumbar_bending	lumbar_rotation	arm_flex_r	arm_add_r	arm_rot_r	elbow_flex_r	pro_sup_r	wrist_flex_r	wrist_dev_r	arm_flex_l	arm_add_l	arm_rot_l	elbow_flex_l	pro_sup_l	wrist_flex_l	wrist_dev_l
      1.97150000000000000000	     -2.14038374678861000000	      4.60062374796391450000	      1.80888366065715520000	      1.15691994913111680000	      0.94732043560860801000	     -0.41393773151107544000	     37.47736743400846400000	     -1.03591593665503860000	      3.89430735416993200000	   -117.22993967295145000000	     10.84138118598149300000	      0.00000000000008119766	     -0.00000000000021709471	      1.15969103596906950000	     13.79583876614743900000	      3.98816212967909720000	    -33.64438944354569100000	     25.01157703944985400000	      0.00000000000001753174	      0.00000000000008828439	    -16.81122531196300300000	     -5.51809860545822950000	    -12.92378680758441200000	    -34.21374990025531600000	    -18.29996929719211000000	     -3.97406795828614450000	    105.26856338973960000000	     93.26851451221300200000	     -0.00000000000000585525	      0.00000000000001574658	    -14.34219701015594200000	    -13.69796726790362100000	    -16.37630796732776200000	    125.85034414110274000000	     91.07853723253798300000	      0.00000000000000364080	     -0.00000000000006080723
      1.97250000000000010000	     -2.20022064855328110000	      4.46006334842845840000	      1.79081219480628500000	      1.15721561029945820000	      0.94762578216939719000	     -0.41401463347179190000	     37.90595722187271800000	     -0.87630107172127825000	      3.87452804465257470000	   -116.89163503110557000000	     10.96625482428898100000	      0.00000000000008149439	     -0.00000000000021769882	      0.64832053409119073000	     13.64488456058555200000	      4.18693566636892540000	    -33.16453358952303900000	     24.78575716022157500000	      0.00000000000001744903	      0.00000000000008877044	    -16.69339312088868600000	     -5.33276755905398940000	    -13.05329311079634500000	    -34.52253437124497300000	    -18.40256916085551000000	     -4.03621015833131840000	    105.60553211386224000000	     93.32730945389893400000	     -0.00000000000000591374	      0.00000000000001574945	    -14.23783415462325900000	    -13.65581130885095500000	    -16.38149335975096600000	    126.10266698975413000000	     91.15958106413860700000	      0.00000000000000365215	     -0.00000000000006098230
      1.97350000000000000000	     -2.26287091216201870000	      4.31439671802503710000	      1.77316822929311700000	      1.15751950117413590000	      0.94793204727797975000	     -0.41409090762357131000	     38.33204592521187900000	     -0.71303829530416452000	      3.84798827851275460000	   -116.54389723713038000000	     11.08961351158186800000	      0.00000000000008179259	     -0.00000000000021830222	      0.13951551313137897000	     13.48641287554037800000	      4.38356915269896240000	    -32.68076397867272200000	     24.54822958427100900000	      0.00000000000001739343	      0.00000000000008922459	    -16.57146366416160200000	     -5.14163108122208450000	    -13.17792760928905900000	    -34.83659391179904900000	    -18.50329548489425200000	     -4.10470039468138380000	    105.94441416138817000000	     93.38914780758879900000	     -0.00000000000000597288	      0.00000000000001575405	    -14.13263073535297600000	    -13.61486616619705900000	    -16.37947278384048000000	    126.35519900338629000000	     91.23922864752549300000	      0.00000000000000366390	     -0.00000000000006115524
      1.97450000000000010000	     -2.32838717054989840000	      4.16361598979052690000	      1.75588578416398700000	      1.15783151695485960000	      0.94823892304899327000	     -0.41416634264938335000	     38.75568618791452700000	     -0.54615645734590901000	      3.81473173606244750000	   -116.18681887395340000000	     11.21138984452865900000	      0.00000000000008209604	     -0.00000000000021890749	     -0.36647081788750058000	     13.32039839466443500000	      4.57774886215825740000	    -32.19338978781702600000	     24.29902155353612200000	      0.00000000000001736113	      0.00000000000008965916	    -16.44538894466042200000	     -4.94469477196127900000	    -13.29761886841343900000	    -35.15597527850227500000	    -18.60198934986678800000	     -4.17957649926017090000	    106.28510117012631000000	     93.45371247628148100000	     -0.00000000000000603169	      0.00000000000001575908	    -14.02647279522886600000	    -13.57521175232243500000	    -16.37012861645926500000	    126.60769098258142000000	     91.31743197404566100000	      0.00000000000000367483	     -0.00000000000006132295
      1.97550000000000000000	     -2.39681303383463270000	      4.00772352555301660000	      1.73889940654013970000	      1.15815154495341450000	      0.94854611682657919000	     -0.41424073506261111000	     39.17692180036389300000	     -0.37569351333962536000	      3.77481383463649940000	   -115.82049060918023000000	     11.33151214722043000000	      0.00000000000008240082	     -0.00000000000021951293	     -0.86939350301036422000	     13.14683422656271900000	      4.76916445809285780000	    -31.70272745476155800000	     24.03816513522338000000	      0.00000000000001735258	      0.00000000000009003748	    -16.31513310164646300000	     -4.74197306357926700000	    -13.41230853907395500000	    -35.48071619912209200000	    -18.69849740758162700000	     -4.26086500335649280000	    106.62748995075648000000	     93.52067923997442700000	     -0.00000000000000609032	      0.00000000000001576375	    -13.91925638516659300000	    -13.53692190665507800000	    -16.35336241294466200000	    126.85990397270456000000	     91.39415726041970300000	      0.00000000000000368708	     -0.00000000000006147974
      1.97650000000000010000	     -2.46818261646441740000	      3.84673214142537740000	      1.72214463237467920000	      1.15847946380614890000	      0.94885335293296702000	     -0.41431388937746261000	     39.59578689806395600000	     -0.20169643720085531000	      3.72830173119775040000	   -115.44500111037867000000	     11.44990510027752600000	      0.00000000000008270705	     -0.00000000000022011675	     -1.36901658722332020000	     12.96573192142071700000	      4.95750995972001100000	    -31.20910023832358600000	     23.76569684752820400000	      0.00000000000001738382	      0.00000000000009029205	    -16.18067315710940300000	     -4.53348949686027500000	    -13.52195179487811500000	    -35.81084481754211900000	    -18.79267194063198700000	     -4.34858094022030080000	    106.97148206311367000000	     93.58971846967968100000	     -0.00000000000000614929	      0.00000000000001576957	    -13.81088749416147500000	    -13.50006481400490800000	    -16.32909478648819900000	    127.11160962099109000000	     91.46938438847811900000	      0.00000000000000370079	     -0.00000000000006163068
      1.97750000000000000000	     -2.54252022754815640000	      3.68066534010655830000	      1.70555851964012240000	      1.15881514263075650000	      0.94916037412496346000	     -0.41438561846887079000	     40.01230536062518400000	     -0.02422117599405699400	      3.67527429783555390000	   -115.06043698764707000000	     11.56649035508510300000	      0.00000000000008302330	     -0.00000000000022072087	     -1.86511364661303160000	     12.77712149997350400000	      5.14248474238709810000	    -30.71283784253991900000	     23.48165726470362800000	      0.00000000000001744933	      0.00000000000009049186	    -16.04199957489793600000	     -4.31927699949434360000	    -13.62651781336886500000	    -36.14637916099513900000	    -18.88437091259219300000	     -4.44272764528614860000	    107.31698337029017000000	     93.66049685037994300000	     -0.00000000000000620855	      0.00000000000001577467	    -13.70128202201167900000	    -13.46470341573776300000	    -16.29726528935949000000	    127.36259053451808000000	     91.54310635048572900000	      0.00000000000000371334	     -0.00000000000006178071
